<svg xmlns="http://www.w3.org/2000/svg" preserveAspectRatio="xMinYMin meet" viewBox="0 0 288 89.1"><defs><style>.a{fill:#231f20;}.b{fill:#c9920e;}</style></defs><title>new-mill-logo-test4</title><path class="a" d="M55.2,81.5h5.9c1.8,0,2.7.5,2.7,1.6v0.7a1.3,1.3,0,0,1-.8,1.3,1.3,1.3,0,0,1,.8,1.2v1.1c0,1.1-.9,1.6-2.7,1.6H55.2V81.5Zm1.4,1.1v2H62a0.4,0.4,0,0,0,.3-0.4v-1q0-.5-1.3-0.5H56.6ZM61.1,88c0.8,0,1.3-.2,1.3-0.5V86.3a0.4,0.4,0,0,0-.3-0.4H56.6V88h4.4Z"/><path class="a" d="M73.9,88q1.3,0,1.3-.8V81.5h1.4v5.6c0,1.3-.9,1.9-2.7,1.9h-4q-2.7,0-2.7-2V81.5h1.4v5.6c0,0.6.4,0.8,1.3,0.8h4Z"/><path class="a" d="M80.2,81.5h1.4v7.6H80.2V81.5Z"/><path class="a" d="M84.9,81.5h1.4V88h6.1v1.1H84.9V81.5Z"/><path class="a" d="M95.8,81.5h6.6q3.1,0,3.1,2.1V87q0,2-3.1,2H95.8V81.5Zm6.6,6.4q1.7,0,1.7-.9V83.6q0-.9-1.7-0.9H97.2V88h5.2Z"/><path class="a" d="M109,81.5h1.4v7.6H109V81.5Z"/><path class="a" d="M115.4,83.3v5.8H114V81.5h1.1l7.5,5.8V81.5H124v7.6h-1.1Z"/><path class="a" d="M134.8,85h1.4v2.5c0,1.1-.9,1.6-2.7,1.6h-3.3c-1.8,0-2.7-.5-2.7-1.6V83.2c0-1.1.9-1.6,2.7-1.6h5.9v1.1h-5.9q-1.3,0-1.3.5v4.3c0,0.3.4,0.5,1.3,0.5h3.3c0.8,0,1.3-.2,1.3-0.5V85Z"/><path class="a" d="M153.8,84.5q2.7,0,2.7,1.6v1.3c0,1.1-.9,1.6-2.7,1.6h-6.4V88h6.4c0.8,0,1.3-.2,1.3-0.5V86.1c0-.3-0.4-0.5-1.3-0.5h-4q-2.7,0-2.7-1.6V83.2c0-1.1.9-1.6,2.7-1.6H156v1.1h-6.2c-0.8,0-1.3.2-1.3,0.5V84c0,0.3.4,0.5,1.3,0.5h4Z"/><path class="a" d="M164.1,86l-4.8-4.5h1.8l3.7,3.4,3.7-3.4h1.8L165.5,86v3.1h-1.4V86Z"/><path class="a" d="M179.8,84.5q2.7,0,2.7,1.6v1.3q0,1.6-2.7,1.6h-6.4V88h6.4c0.8,0,1.3-.2,1.3-0.5V86.1c0-.3-0.4-0.5-1.3-0.5h-4q-2.7,0-2.7-1.6V83.2c0-1.1.9-1.6,2.7-1.6H182v1.1h-6.2q-1.3,0-1.3.5V84c0,0.3.4,0.5,1.3,0.5h4Z"/><path class="a" d="M185.4,81.5h9.2v1.1h-3.9v6.4h-1.4V82.7h-4V81.5Z"/><path class="a" d="M199.2,85.7V88h6.3v1.1h-7.8V81.5h7.8v1.1h-6.3v1.9h6v1.1h-6Z"/><path class="a" d="M209,81.5h1.3l4.5,6.2,4.5-6.2h1.2v7.6h-1.4V83.8l-3.8,5.2h-1.2l-3.8-5.2v5.2H209V81.5Z"/><path class="a" d="M230.6,84.5q2.7,0,2.7,1.6v1.3q0,1.6-2.7,1.6h-6.4V88h6.4c0.8,0,1.3-.2,1.3-0.5V86.1q0-.5-1.3-0.5h-4q-2.7,0-2.7-1.6V83.2c0-1.1.9-1.6,2.7-1.6h6.2v1.1h-6.2q-1.3,0-1.3.5V84c0,0.3.4,0.5,1.3,0.5h4Z"/><path class="a" d="M0.4,57.4H4.5L12,64.4c1.5,1.4,2.9,2.9,3,3a24.5,24.5,0,0,1-.4-3.5V57.4H18V70.2H14.3L6.8,63.4c-1.4-1.3-3.3-3.3-3.3-3.3a26.3,26.3,0,0,1,.3,3.5L4,70.2H0.4V57.4Z"/><path class="a" d="M23.3,57.5H37.8l-0.5,1.6H26.9v3.6h8.7v1.6H26.9v4.1H38.2v1.7H23.3V57.5Z"/><path class="a" d="M40.9,57.4h3.8l3,6.1a23,23,0,0,1,1.6,4.3s0.8-2.3,1.7-4.2l3-6.2h4L61.1,64a40.3,40.3,0,0,1,1.6,3.8,39.3,39.3,0,0,1,1.6-4l3-6.3h3.7L64.8,70.2H60.4l-2.9-5.9A29.1,29.1,0,0,1,56,60.2s-0.8,2.2-1.6,4l-2.8,6.1H47.2Z"/><path class="a" d="M86.2,57.4H91l4.3,7.4c0.5,1,1.3,2.7,1.3,2.7s0.8-1.7,1.3-2.6l4.3-7.4h5.1l2.2,12.7H106L104.7,62a25.9,25.9,0,0,1-.2-2.7,17.4,17.4,0,0,1-1.3,2.6l-5,8.2H95l-4.9-8.3a17.8,17.8,0,0,1-1.2-2.6s-0.1,1.5-.3,2.6l-1.3,8.3H83.8Z"/><path class="a" d="M114.7,57.4h3.6V70.2h-3.6V57.4Z"/><path class="a" d="M125.2,57.4h3.6V68.5h10.2l-0.5,1.6H125.2V57.4Z"/><path class="a" d="M143.3,57.4h3.6V68.5h10.2l-0.5,1.6H143.3V57.4Z"/><path class="a" d="M161.4,57.5h14.5l-0.5,1.6H165v3.6h8.7v1.6H165v4.1h11.3v1.7H161.4V57.5Z"/><path class="a" d="M181.1,57.4h4.1l7.6,6.9c1.5,1.4,2.9,2.9,3,3a24.3,24.3,0,0,1-.4-3.5V57.4h3.5V70.2H195l-7.5-6.8c-1.4-1.3-3.3-3.3-3.3-3.3a27.6,27.6,0,0,1,.3,3.5l0.2,6.5h-3.7V57.4Z"/><path class="a" d="M205.2,57.4h4.1l7.6,6.9c1.5,1.4,2.9,2.9,3,3a24.2,24.2,0,0,1-.4-3.5V57.4h3.5V70.2h-3.7l-7.5-6.8c-1.4-1.3-3.3-3.3-3.3-3.3a26.6,26.6,0,0,1,.3,3.5l0.2,6.5h-3.7V57.4Z"/><path class="a" d="M229.6,57.4h3.6V70.2h-3.6V57.4Z"/><path class="a" d="M239.5,57.4h3.6v7.6a5.4,5.4,0,0,0,.3,2.1c0.6,1,2.5,1.5,5,1.5s3.6-.3,4.3-0.9a2.3,2.3,0,0,0,.9-2.2V57.4h3.6v8.1c0,2.1-.4,2.8-2.1,3.7s-3.7,1.2-6.8,1.2c-4.7,0-7-1-8-2.2a3.2,3.2,0,0,1-.8-2.7V57.4Z"/><path class="a" d="M263.5,57.4h4.9l4.3,7.4c0.5,1,1.3,2.7,1.3,2.7s0.8-1.7,1.3-2.6l4.3-7.4h5.1l2.2,12.7h-3.5L282,62a26.3,26.3,0,0,1-.2-2.7,17.7,17.7,0,0,1-1.3,2.6l-5,8.2h-3.1l-4.9-8.3a17.8,17.8,0,0,1-1.2-2.6s-0.1,1.5-.3,2.6l-1.3,8.3h-3.4Z"/><rect class="b" x="-0.3" y="75.2" width="288" height="1.11"/><path class="b" d="M169.4,11.8l-0.9-1.5a12.7,12.7,0,0,0-9.1-5.7c-2.3-.2-3.7.3-7.1,2.6L136,18.1h-0.2l-6.5,7.5v0.2l1.2,1.8v0.2h0.2l15.8-10.5c3.1-2.1,4.4-2.6,6-2.6s5.5,2,7.3,4.5l0.7,1.2a10.7,10.7,0,0,1,1.3,5.1L147.6,35h-0.2l-6.5,7.5v0.2l1.2,1.8v0.2h0.2l16.3-10.8a18.2,18.2,0,0,0,3.7-3l6.5-7.5H169a6.7,6.7,0,0,0,1.4-2.6A11.8,11.8,0,0,0,169.4,11.8Z"/><path class="b" d="M117.2,32.9l0.9,1.5a12.7,12.7,0,0,0,9.1,5.7c2.3,0.2,3.7-.3,7.1-2.6l16.3-10.8h0.2l6.5-7.5V18.8l-1.2-1.8V16.9h-0.2L139.8,27.5c-3.1,2.1-4.4,2.6-6,2.6s-5.5-2-7.3-4.5l-0.7-1.2a10.7,10.7,0,0,1-1.3-5.1l14.4-9.6h0.2l6.5-7.5V2l-1.2-1.8V0h-0.2L127.6,10.9a18,18,0,0,0-3.7,3l-6.5,7.5h0.1a6.7,6.7,0,0,0-1.4,2.6A11.8,11.8,0,0,0,117.2,32.9Z"/></svg>