<svg id="Steel-Dynamics-Rail-Logo" xmlns="http://www.w3.org/2000/svg" viewBox="0 0 315 100"><defs><style>.cls-1{fill:#231f20;}.cls-2{fill:#bf2f38;}.cls-3{fill:#6d6e70;}</style></defs><title>steel-dynamics-rail-division-logo</title><path class="cls-1" d="M89.1,50.2l-0.3,1.6c-0.3,1.3-.1,2.4,1.6,2.4A2.5,2.5,0,0,0,92.6,52c0.4-1.9-1-2.6-2.2-3.4a11.1,11.1,0,0,1-3.3-2.9,5.7,5.7,0,0,1-.6-4.5c0.9-4.2,3.9-6.3,7.9-6.3s6.2,3,5.1,7.2H94.7c0.2-1.3.7-3.1-1-3.2a2,2,0,0,0-2.1,1.5,2.2,2.2,0,0,0,1,2.7c1.7,1.3,3.2,2,4.2,3.2s1.4,2.6.8,5.3c-0.9,4.3-3.8,6.7-8.1,6.7s-6.3-2.7-5.6-5.6l0.5-2.4h4.9Z"/><path class="cls-1" d="M99.7,44.5l0.7-3.4h1.9l1-4.8h4.7L107,41h2.3l-0.7,3.4h-2.3l-1.9,8.8c-0.2,1,.2,1.2.8,1.2h1.2l-0.7,3.3-3.1.3c-2.6,0-3.7-1.3-3.1-3.8l2.1-9.7H99.7Z"/><path class="cls-1" d="M113.4,47l0.2-1.1c0.2-1.2.8-2.2,2.1-2.2a1.3,1.3,0,0,1,1.2,1.7L116.7,47h-3.3Zm7.3,3.1,1-4.8c0.8-3.6-2-4.9-5.3-4.8s-6.7,1.4-7.6,5.7l-1.4,6.8c-0.8,3.8,1.9,5.2,5.3,5.2s6.9-2,7.5-6.3h-4.7c-0.4,1.4-.5,3-2.3,2.9s-1.3-.8-1.1-1.8l0.6-2.9h8Z"/><path class="cls-1" d="M127.7,47l0.2-1.1c0.2-1.2.8-2.2,2.1-2.2a1.3,1.3,0,0,1,1.2,1.7L131,47h-3.3Zm7.3,3.1,1-4.8c0.8-3.6-2-4.9-5.3-4.8s-6.7,1.4-7.6,5.7l-1.4,6.8c-0.8,3.8,1.9,5.2,5.3,5.2s6.9-2,7.5-6.3h-4.7c-0.4,1.4-.5,3-2.3,2.9s-1.3-.8-1.1-1.8l0.6-2.9h8Z"/><path class="cls-1" d="M135,57.7l4.7-22.3h4.7l-4.7,22.3H135Z"/><path class="cls-1" d="M157.1,39.4c2.6,0.1,3.4.2,2.9,2.8l-1.6,7.3c-0.5,3-.9,4.4-4.3,4.2ZM155,57.7a9.5,9.5,0,0,0,4.9-1,6.9,6.9,0,0,0,3.3-4.8l2.1-9.9c0.5-2.1.6-4.3-1.2-5.5s-3.8-1-5.7-1h-5.7L148,57.7H155Z"/><path class="cls-1" d="M169.8,51.8h0.1L173.8,41h4.6l-6,14.3c-2.2,4.5-2.9,8-8.1,8h-1.8l0.7-3.5h0.9a1.5,1.5,0,0,0,1.6-.8,15,15,0,0,0,.1-2.8V41h4.8Z"/><path class="cls-1" d="M184,41l-0.4,2.1h0.1a5.1,5.1,0,0,1,3.9-2.6c2.2,0,4,1.2,3.5,3.5L188,57.7h-4.7l2.5-11.9c0.1-.8-0.1-1.4-1-1.4a1.6,1.6,0,0,0-1.6,1.4l-2.5,11.9H176L179.6,41H184Z"/><path class="cls-1" d="M199,52.2c-0.3,1.1-.9,2.5-2.3,2.5a1.3,1.3,0,0,1-1.4-1.8,3.1,3.1,0,0,1,1.6-2.1,28.1,28.1,0,0,1,2.6-1.2Zm-0.7,5.5H203a5.3,5.3,0,0,1,0-1.8l2.2-10.2c0.8-3.7-.6-5.1-5.3-5.1s-6.9,1.6-7.6,5.7H197c0.4-1.4.6-2.6,2.4-2.6s1.3,0.8,1.1,1.7-2.5,2-4.7,2.7a6.9,6.9,0,0,0-5.3,5.7c-0.6,2.7.7,4.5,3.4,4.5a6.2,6.2,0,0,0,4.5-2v1.5Z"/><path class="cls-1" d="M211.7,41L211.3,43h0.1a5.8,5.8,0,0,1,4.1-2.4,2.8,2.8,0,0,1,3,2.2h0.1a5.1,5.1,0,0,1,3.9-2.2c2.2,0,4,1.2,3.5,3.5L223,57.7h-4.7l2.5-11.9c0.1-.8-0.1-1.4-1-1.4a1.6,1.6,0,0,0-1.6,1.4l-2.5,11.9H211l2.5-11.9c0-.7,0-1.4-0.8-1.4a1.6,1.6,0,0,0-1.7,1.4l-2.5,11.9h-4.7L207.3,41h4.4Z"/><path class="cls-1" d="M224.7,57.7L228.2,41H233l-3.5,16.7h-4.7Zm3.9-18.3,0.9-4h4.7l-0.9,4h-4.7Z"/><path class="cls-1" d="M241.3,47.2V46.9c0-.6.2-1.3,0.2-1.9a1,1,0,0,0-1.1-1c-1.2,0-1.6,1-1.9,2l-1.5,6.9c-0.2,1-.1,1.9,1.1,1.9s2-2.6,2.3-3.9h4.6a21.7,21.7,0,0,1-1.2,4,6.2,6.2,0,0,1-5.2,3.2h-1.6c-3.4,0-5.6-1.4-4.8-5.2l1.4-6.8c0.9-4.3,3.4-5.7,7.1-5.7s6.1,2.1,4.8,6.7h-4.5Z"/><path class="cls-1" d="M254.9,46c0.1-1.1.4-2.3-1.1-2.3a1.7,1.7,0,0,0-1.9,1.4,1.6,1.6,0,0,0,1.1,1.7c2.8,1.4,5.9,2.2,5.1,6.2s-4,5.3-7.4,5.3-6-1.6-5-5.6h4.5c-0.3,1.2-.3,2.5,1.2,2.5a1.9,1.9,0,0,0,2-1.6,1.3,1.3,0,0,0-.4-1.3c-1.7-1-4.2-1.7-5.3-3.4a3.9,3.9,0,0,1-.5-3.1c0.8-3.6,4-5.2,7.3-5.2s5.9,1.7,4.9,5.4h-4.4Z"/><path class="cls-1" d="M258.1,60.7a3.2,3.2,0,0,0,2.1-.8,4.3,4.3,0,0,0,1.2-2.1h-2.7l1.1-5.1h5l-1.1,5.1c-0.7,3.1-3.1,4.4-6,4.6Z"/><path class="cls-1" d="M270.4,57.7l4.7-22.3h5.2l-4.7,22.3h-5.2Z"/><path class="cls-1" d="M285.4,41L285,43.1H285a5.1,5.1,0,0,1,3.9-2.6c2.2,0,4,1.2,3.5,3.5l-2.9,13.7h-4.7l2.5-11.9c0.1-.8-0.1-1.4-1-1.4a1.6,1.6,0,0,0-1.6,1.4l-2.5,11.9h-4.7L281,41h4.4Z"/><path class="cls-1" d="M301,47.2V46.9c0-.6.2-1.3,0.2-1.9a1,1,0,0,0-1.1-1c-1.2,0-1.6,1-1.9,2l-1.5,6.9c-0.2,1-.1,1.9,1.1,1.9s2-2.6,2.3-3.9h4.6a21.7,21.7,0,0,1-1.2,4,6.2,6.2,0,0,1-5.2,3.2h-1.6c-3.4,0-5.6-1.4-4.8-5.2l1.4-6.8c0.9-4.3,3.4-5.7,7.1-5.7s6.1,2.1,4.8,6.7H301Z"/><path class="cls-1" d="M306.4,57.7l1.1-5.1h5l-1.1,5.1h-5Z"/><path class="cls-1" d="M13.5,54.3l1.2,1.2c1,1,2.1,1.5,3.3.3s0.4-2.1-.5-2.9-3-.8-4.6-0.5a15,15,0,0,1-5,.6,7.3,7.3,0,0,1-4.4-2.3c-3.2-3.1-3.1-6.5-.3-9.4s7.1-2.6,10.1.7L9.9,45.5c-1-.9-2.4-2.3-3.6-1.2a1.6,1.6,0,0,0-.1,2.4,2.9,2.9,0,0,0,3.2.9,36.3,36.3,0,0,1,5.8-1.1c1.7,0,3.3.6,5.4,2.6s3.4,6.7.4,9.7-6.8,2.8-9,.6l-1.8-1.8Z"/><path class="cls-1" d="M15.6,35.7c1.8-1.8,2.5-2.3,4.5-.3l5.5,5.4c2.3,2.2,3.4,3.2.8,5.5ZM30.8,48A7.8,7.8,0,0,0,33.2,44c0.3-1.8-.4-3.5-2.1-5.2l-7.5-7.4c-1.6-1.6-3.5-3-5.8-2.4s-3.6,2-4.9,3.4l-3.9,4L25.9,53Z"/><path class="cls-1" d="M36.6,42.1l-17-16.6,3.6-3.7,17,16.6Z"/><polygon class="cls-2" points="27.3 15.6 47.6 15.6 79 46.5 47.8 78.6 27.3 78.6 58.6 47 27.3 15.6"/><path class="cls-1" d="M307.8,42.2a3.8,3.8,0,0,1,7.6,0,3.7,3.7,0,0,1-3.8,3.8A3.6,3.6,0,0,1,307.8,42.2Zm0.9,0a2.7,2.7,0,0,0,2.8,2.9,2.8,2.8,0,0,0,2.9-2.9A2.9,2.9,0,0,0,308.7,42.2Zm2,2.1h-0.9V40.1h2.3a1.2,1.2,0,0,1,1.4,1.3,1,1,0,0,1-1.1,1.1l1,1.7h-1l-0.9-1.6h-0.7v1.6Zm1.2-2.4c0.5,0,.7-0.1.7-0.6s-0.5-.5-0.9-0.5h-1v1.1H312Z"/><path class="cls-3" d="M84.4,78.6L87.1,66h2.5L87.4,76.5h4.5l-0.4,2.1h-7Z"/><path class="cls-3" d="M98,68.8c2.9-.1,3.4,1.7,2.7,5s-2,5-4.8,5-3.4-1.7-2.7-5S95.3,68.8,98,68.8Zm-1.8,8.3c1,0,1.5-1,2-3.3s0.4-3.3-.6-3.3-1.6,1.4-2,3.3S95.1,77.2,96.3,77.2Z"/><path class="cls-3" d="M102.6,69.1h2.3l-0.2,1.1h0a3.3,3.3,0,0,1,2.7-1.4c1.5,0,2.2.8,1.9,2.7l-1.5,7h-2.4l1.4-6.6c0.2-1,0-1.3-.8-1.3a1.7,1.7,0,0,0-1.6,1.6L103,78.6h-2.4Z"/><path class="cls-3" d="M118.1,69.1l-1.9,9c-0.5,2.5-1.9,3.7-4.8,3.7s-3-.9-2.7-2.5h2.3a0.7,0.7,0,0,0,.2.7,1.2,1.2,0,0,0,.8.3,1.8,1.8,0,0,0,1.7-1.7l0.3-1.3h0a3.3,3.3,0,0,1-2.3,1.2c-1.9,0-2.6-1.3-1.9-4.8s1.4-4.8,4-4.8a1.7,1.7,0,0,1,1.7,1.3h0l0.2-1.1h2.3Zm-5.2,7.5c1,0,1.6-1.1,1.9-2.7s0.4-3.2-.6-3.2-1.5.9-2,3.4S111.8,76.6,112.9,76.6Z"/><path class="cls-3" d="M124.8,66h4.5c2.6,0,3.1,1.9,2.6,3.8a4.5,4.5,0,0,1-4.8,3.8h-1.4l-1.1,5h-2.5Zm1.3,5.7h1.1a2.1,2.1,0,0,0,2.1-1.9c0.3-1.2-.1-1.9-1.4-1.9h-1.1Z"/><path class="cls-3" d="M133.1,69.1h2.3l-0.3,1.3h0a3.2,3.2,0,0,1,2.5-1.5h0.4l-0.5,2.3h-0.8a2.1,2.1,0,0,0-2.2,1.7l-1.2,5.7H131Z"/><path class="cls-3" d="M142.4,68.8c2.9-.1,3.4,1.7,2.7,5s-2,5-4.8,5-3.4-1.7-2.7-5S139.6,68.8,142.4,68.8Zm-1.8,8.3c1,0,1.5-1,2-3.3s0.4-3.3-.6-3.3-1.6,1.4-2,3.3S139.4,77.2,140.6,77.2Z"/><path class="cls-3" d="M150.3,77.6h0a2.9,2.9,0,0,1-2.4,1.3c-2,0-2.6-1.5-1.9-5s2-5,4-5a1.8,1.8,0,0,1,1.8,1.1h0l0.8-4h2.4l-2.7,12.6h-2.3Zm-1.3-.6c1.1,0,1.5-1.1,1.9-3.1s0.5-3.1-.6-3.1-1.5,1.1-1.9,3.1S148,76.9,149.1,76.9Z"/><path class="cls-3" d="M158.5,77.5h0a3.3,3.3,0,0,1-2.7,1.4c-1.5,0-2.2-.8-1.8-2.7l1.5-7h2.4l-1.4,6.6c-0.2,1,.1,1.3.8,1.3a1.6,1.6,0,0,0,1.6-1.6l1.3-6.3h2.4l-2,9.5h-2.3Z"/><path class="cls-3" d="M167.7,72.5c0.2-.9.2-1.9-0.7-1.9s-1.6,1.1-2.1,3.2-0.5,3.3.6,3.3,1.3-.7,1.7-2.2h2.3c-0.5,2.5-1.9,3.9-4.4,3.9s-3.4-1.2-2.6-5,2.7-5,4.9-5,3.1,1.4,2.6,3.7h-2.3Z"/><path class="cls-3" d="M173.1,66.3h2.4L175,69.1h1.4L176,70.7h-1.4l-1.1,5.1c-0.2.7-.1,1,0.6,1h0.5l-0.4,1.7h-1.6c-1.9,0-2.1-.6-1.7-2.5l1.1-5.4H171l0.4-1.7h1.2Z"/><path class="cls-3" d="M177.7,75.5v0.3a1,1,0,0,0,1,1.4,1.4,1.4,0,0,0,1.5-1.1,0.9,0.9,0,0,0-.7-1.1l-1.6-.6a2.1,2.1,0,0,1-1.5-2.6c0.3-1.6,1.6-2.9,4.1-2.9s3,1,2.7,2.7v0.4h-2.2a1.7,1.7,0,0,0,0-1.1,0.7,0.7,0,0,0-.8-0.4,1.3,1.3,0,0,0-1.4,1,0.9,0.9,0,0,0,.8,1.1l1.4,0.5a2,2,0,0,1,1.5,2.7c-0.4,2-2.1,3-4.2,3s-3.2-1.2-2.9-3V75.5h2.2Z"/><path class="cls-3" d="M194.9,69.7c0.2-.9,0-2.1-1-2.1s-2,1.3-2.7,4.4-0.8,4.9.7,4.9a2.4,2.4,0,0,0,2-2l0.3-1.3h-1.7l0.4-1.9H197l-1.4,6.8h-1.9l0.2-1.2h0a3.6,3.6,0,0,1-2.9,1.4c-3.1,0-3.2-2.3-2.3-6.7s2.3-6.4,5.6-6.4,3.6,1.4,3.1,4h-2.4Z"/><path class="cls-3" d="M198.5,69.1h2.3l-0.3,1.3h0a3.2,3.2,0,0,1,2.5-1.5h0.4l-0.5,2.3h-0.8a2.1,2.1,0,0,0-2.2,1.7L199,78.6h-2.4Z"/><path class="cls-3" d="M207.9,68.8c2.9-.1,3.4,1.7,2.7,5s-2,5-4.8,5-3.4-1.7-2.7-5S205.1,68.8,207.9,68.8Zm-1.8,8.3c1,0,1.5-1,2-3.3s0.4-3.3-.6-3.3-1.6,1.4-2,3.3S204.9,77.2,206.1,77.2Z"/><path class="cls-3" d="M215.5,77.5h0a3.3,3.3,0,0,1-2.7,1.4c-1.5,0-2.2-.8-1.8-2.7l1.5-7h2.4l-1.4,6.6c-0.2,1,.1,1.3.8,1.3a1.6,1.6,0,0,0,1.6-1.6l1.3-6.3h2.4l-2,9.5h-2.3Z"/><path class="cls-3" d="M220.7,69.1H223l-0.2,1h0a2.9,2.9,0,0,1,2.4-1.3c2,0,2.6,1.5,1.9,5s-2,5-4,5a1.8,1.8,0,0,1-1.8-1.1h0l-0.8,4H218Zm2.1,7.9c1.1,0,1.5-1.1,1.9-3.1s0.5-3.1-.6-3.1-1.5,1.1-2,3.1S221.7,76.9,222.7,76.9Z"/><path class="cls-3" d="M90.9,87c0.3-1.1-.1-1.9-1.3-1.9a2.1,2.1,0,0,0-2.3,1.9,1.1,1.1,0,0,0,.7,1.4L89.5,89c1.8,0.7,2.1,1.5,1.8,2.9a3.8,3.8,0,0,1-4,3.2,2.3,2.3,0,0,1-2.5-1.7,5.9,5.9,0,0,1,.2-1.9h1.2C85.8,93,85.9,94,87.6,94A2.3,2.3,0,0,0,90,92.1c0.3-1.6-.3-1.6-1.3-2l-1.9-.8c-0.9-.5-1-1.4-0.7-2.4A3.6,3.6,0,0,1,89.7,84c1.9,0,2.9,1,2.4,3H90.9Z"/><path class="cls-3" d="M95.4,86.9h1.3l-0.2.9H95.2l-1.1,5.3c-0.1.3-.2,0.6,0.4,0.6h0.7l-0.2.9H93.8c-0.7,0-1.1-.1-0.9-1.3l1.2-5.6H93l0.2-.9h1.1l0.5-2.1h1.1Z"/><path class="cls-3" d="M98.9,88.2h0a2.6,2.6,0,0,1,2.6-1.4L101.3,88A2.3,2.3,0,0,0,98.6,90l-1,4.8H96.5l1.7-7.8h1.1Z"/><path class="cls-3" d="M105,93.8h0a2.7,2.7,0,0,1-2.1,1.2c-1.2,0-1.8-.6-1.5-2l1.3-6.1h1.1L102.5,93c-0.1.7,0,1,.8,1a2,2,0,0,0,1.5-.7,3.2,3.2,0,0,0,.6-1.4l1.1-5h1.1l-1.7,7.8h-1.1Z"/><path class="cls-3" d="M108.8,91.2c-0.2,1-.5,2.8.9,2.8s1.5-1,1.8-2h1.1c-0.4,1.5-1.2,2.9-3,2.9s-2.3-2-1.9-4,1.2-4.2,3.6-4.2,2.1,1.2,1.8,2.7h-1c0.2-.9.1-1.7-0.9-1.7S109,90.1,108.8,91.2Z"/><path class="cls-3" d="M116.5,86.9h1.3l-0.2.9h-1.3l-1.1,5.3c-0.1.3-.2,0.6,0.4,0.6h0.7l-0.2.9h-1.2c-0.7,0-1.1-.1-0.9-1.3l1.2-5.6h-1.1l0.2-.9h1.1l0.5-2.1h1.1Z"/><path class="cls-3" d="M121.2,93.8h0A2.7,2.7,0,0,1,119,95c-1.2,0-1.8-.6-1.5-2l1.3-6.1h1.1L118.6,93c-0.1.7,0,1,.8,1a2,2,0,0,0,1.5-.7,3.2,3.2,0,0,0,.6-1.4l1.1-5h1.1l-1.7,7.8h-1.1Z"/><path class="cls-3" d="M125.7,88.2h0a2.6,2.6,0,0,1,2.6-1.4L128.1,88a2.3,2.3,0,0,0-2.7,2.1l-1,4.8h-1.1l1.7-7.8H126Z"/><path class="cls-3" d="M132.7,94.8h-0.3c-1,0-1.3,0-1.2-1.1h0a2.6,2.6,0,0,1-2,1.3c-1.6,0-1.8-.9-1.5-2.3a2.6,2.6,0,0,1,1.5-1.9l2.6-1a1.3,1.3,0,0,0,.4-0.9c0.2-.9-0.1-1.2-1-1.2s-1.3.5-1.4,1.4h-1a2.5,2.5,0,0,1,2.8-2.3,1.5,1.5,0,0,1,1.7,2.1l-1,4.5a0.5,0.5,0,0,0,.1.6h0.5Zm-0.9-4.2-1.9.8a1.8,1.8,0,0,0-1,1.4c-0.2.8-.1,1.3,0.8,1.3a1.9,1.9,0,0,0,1.7-1.6Z"/><path class="cls-3" d="M133.6,94.8l2.3-10.6h1.1l-2.3,10.6h-1.1Z"/><path class="cls-3" d="M144.4,94.8h-0.3c-1,0-1.3,0-1.2-1.1h0a2.6,2.6,0,0,1-2,1.3c-1.6,0-1.8-.9-1.5-2.3a2.6,2.6,0,0,1,1.5-1.9l2.6-1a1.3,1.3,0,0,0,.4-0.9c0.2-.9-0.1-1.2-1-1.2s-1.3.5-1.4,1.4h-1a2.5,2.5,0,0,1,2.8-2.3,1.5,1.5,0,0,1,1.7,2.1l-1,4.5a0.5,0.5,0,0,0,.1.6h0.5Zm-0.9-4.2-1.9.8a1.8,1.8,0,0,0-1,1.4c-0.2.8-.1,1.3,0.8,1.3a1.9,1.9,0,0,0,1.7-1.6Z"/><path class="cls-3" d="M148,87.8h0a3,3,0,0,1,2.2-1.1c1.2,0,1.8.6,1.5,2l-1.3,6.1h-1.1l1.2-5.7c0.2-.8,0-1.4-0.9-1.4a2,2,0,0,0-1.2.4,2.1,2.1,0,0,0-.8,1.4l-1.1,5.2h-1.1l1.7-7.8h1.1Z"/><path class="cls-3" d="M158.2,84.2h1.1l-2.3,10.6H156l0.2-1h0A2.4,2.4,0,0,1,154,95c-2.5,0-1.5-3.5-1.4-4.1,0.4-2.3,1.6-4.1,3.2-4.1a1.6,1.6,0,0,1,1.6,1h0Zm-1.4,6.5c0.2-1.1.6-3.1-.9-3.1s-1.7.7-2.2,3.1-0.6,3.2.9,3.2,1.8-1.5,2-2.3Z"/><path class="cls-3" d="M164.1,94.8h-1.2l2.3-10.6h2.7c2.2,0,3.5.6,2.9,3a3,3,0,0,1-2.5,2.3h0c1.3,0.1,1.6.6,1.5,2s-0.2,1.6-.3,2.4,0,0.7.3,0.7v0.2h-1.4a9.5,9.5,0,0,1,.2-2.7c0.2-1.1,0-2-1.4-2h-2Zm1.2-5.7h1.8a2.3,2.3,0,0,0,2.5-1.9c0.4-1.8-1.1-1.9-1.8-1.9h-1.7Z"/><path class="cls-3" d="M176.2,94.8h-0.3c-1,0-1.3,0-1.2-1.1h0a2.6,2.6,0,0,1-2,1.3c-1.6,0-1.8-.9-1.5-2.3a2.6,2.6,0,0,1,1.5-1.9l2.6-1a1.3,1.3,0,0,0,.4-0.9c0.2-.9-0.1-1.2-1-1.2s-1.3.5-1.4,1.4h-1a2.5,2.5,0,0,1,2.8-2.3,1.5,1.5,0,0,1,1.7,2.1l-1,4.5a0.5,0.5,0,0,0,.1.6h0.5Zm-0.9-4.2-1.9.8a1.8,1.8,0,0,0-1,1.4c-0.2.8-.1,1.3,0.8,1.3a1.9,1.9,0,0,0,1.7-1.6Z"/><path class="cls-3" d="M177.2,94.8l1.7-7.8H180l-1.7,7.8h-1.1Zm2-9.2,0.3-1.4h1.1l-0.3,1.4h-1.1Z"/><path class="cls-3" d="M179.7,94.8l2.3-10.6H183l-2.3,10.6h-1.1Z"/><path class="cls-3" d="M186.5,94.8l2.3-10.6h2.9c3.3,0,3.2,2.7,2.5,5.3s-1.7,5.3-4.6,5.3h-3.1Zm1.4-1.1h1.9c1.7,0,2.7-1.3,3.3-4.4s0.4-4-1.5-4h-1.9Z"/><path class="cls-3" d="M194.5,94.8l1.7-7.8h1.1l-1.7,7.8h-1.1Zm2-9.2,0.3-1.4h1.1l-0.3,1.4h-1.1Z"/><path class="cls-3" d="M198.4,86.9h1.2l0.3,6.9h0l3.2-6.9h1.2l-4,7.8h-1.2Z"/><path class="cls-3" d="M203.9,94.8l1.7-7.8h1.1L205,94.8h-1.1Zm2-9.2,0.3-1.4h1.1l-0.3,1.4h-1.1Z"/><path class="cls-3" d="M211.5,89c0.2-.9,0-1.4-1-1.4a1.4,1.4,0,0,0-1.5,1.2c-0.2,1,.6,1.1,1.3,1.5s2.1,0.8,1.8,2.3a3,3,0,0,1-3.2,2.4,1.9,1.9,0,0,1-1.8-.8,2.2,2.2,0,0,1-.1-1.7h1.1c-0.2,1,0,1.6,1,1.6a1.6,1.6,0,0,0,1.8-1.3c0.2-1.1-.9-1.2-1.6-1.6s-1.7-.9-1.4-2.2a2.8,2.8,0,0,1,2.8-2.2c1.6,0,2.3.7,1.9,2.3h-1.1Z"/><path class="cls-3" d="M212.9,94.8l1.7-7.8h1.1L214,94.8h-1.1Zm2-9.2,0.3-1.4h1.1L216,85.6h-1.1Z"/><path class="cls-3" d="M218.1,95c-1.7,0-2.6-1-1.9-4.4s1.7-3.9,3.6-3.9,2.5,1.5,2,3.9S219.9,95,218.1,95Zm1.6-7.3c-1.1,0-1.8.9-2.3,3.3s-0.3,3.1,1,3.1,1.9-1.3,2.3-3.1S220.9,87.7,219.7,87.7Z"/><path class="cls-3" d="M225,87.8h0a3,3,0,0,1,2.2-1.1c1.2,0,1.8.6,1.5,2l-1.3,6.1h-1.1l1.2-5.7c0.2-.8,0-1.4-0.9-1.4a2,2,0,0,0-1.2.4,2.1,2.1,0,0,0-.8,1.4l-1.1,5.2h-1.1l1.7-7.8h1.1Z"/></svg>